<?xml version="1.0" encoding="utf-8"?>
<!-- Generator: Adobe Illustrator 24.0.3, SVG Export Plug-In . SVG Version: 6.00 Build 0)  -->
<svg version="1.1" id="Layer_1" xmlns="http://www.w3.org/2000/svg" xmlns:xlink="http://www.w3.org/1999/xlink" x="0px" y="0px"
	 viewBox="0 0 477.55 230.96" style="enable-background:new 0 0 477.55 230.96;" xml:space="preserve">
<style type="text/css">
	.st0{fill:#EE3133;}
	.st1{fill:#FAD052;}
</style>
<g>
	<g>
		<g>
			<g>
				<g>
					<path d="M287.93,32.06c5.94,6.99,2.03,18.44,2.95,26.11c-1.72,4.32-5.15,9.24-9.93,11.02c-0.63,1.53-2.21,1.36-3.18,2.62
						c5.73,0.74,9.35-4.28,14.89-5.02c1.81-2.3,4.93-6.57,8.79-4.99c1.9,0.34,3.72,2.27,4.82,3.72c-0.28,2.16-0.71,4.14-2.4,5.65
						c1.89,8.8-7.29,13.07-13.43,16.6c-2.73,0.54-4.76,2.93-7.88,2.7c-4.79,1.01-9.68,0.67-14.51-0.65
						c-9.44-0.64-15.79-9.28-20.88-15.55c-0.4-1.75-0.44-3.35-1.03-5.04c-5.37,5.63,2.33,11.9-1.07,17.75
						c2.11,1.55,0.13,3.92-0.67,5.64c-1.49,1.66-4.06,2.56-6.5,3.34c-2.44-0.59-5.14,0-6.65-2.63c-1.15-4.96-2.19-9.05-1.34-14.52
						c-1.12-1.43-3.34,0-4.78-0.98c-0.13,4.78,1.86,11.59-2.72,15.05c0.59,1.56-0.59,2.97-1.95,3.65c-3.27,0.65-7.3-0.41-9.31-3.3
						c-2.25-4.69,0.94-12.6-5.03-14.77c-4.9-2.08,0.99-10.52-5.67-8.78c-2.05,0.72-4.24,2.09-6.69,1.41
						c-0.17,0.31-0.51,0.5-0.67,0.8c-1.79,7.94,3.94,18.7-5.36,23.81c-2.89,1.93-6.36,2.04-9.19,0.34
						c-4.7-5.95-2.63-15.84-2.9-22.73c-2.33-2.17-6.42-0.26-9.2-1.34c-3.83-0.49-7.67-1.16-10.86-3.53
						c-2.02-2.58-4.89-5.1-3.27-8.56c0.76-2.36,1.68-5.48,4.81-6.14c6.12-2.62,12.99,1.07,19.01-0.97c0.03-3.05,0.6-6.74,3.85-8.01
						c3.99,0.21,9.64-7.66,12.83-0.43c0.97,2.78-1.41,5.43,0.77,7.87c3.55-2.6,9.37-0.34,12.31-4.02c6.35,2.4,0.98-6.77,7.24-6.46
						c1.49-1.69,1.74-4.03,3.58-5.69c3.06-1.78,5.76,1.22,7.57,3.34c0.7,3.86,1.19,8.82-0.05,12.57c4.25,2.45-2.73,10.64,5.05,9.68
						c2.41-8.49-6.95-17.96,1.14-25.29c2.71-0.42,2.25-3.53,4.32-4.43c2.21-1.07,4.68-0.31,6.76,0.4c1.08,0.81,1.29,1.91,2.21,2.75
						c1.5,8.1-0.45,16.72,1.21,24.39c1.22-9.42,6.97-17.32,13.32-24.95c3.5-2.57,7.98-3.83,11.72-6.28
						c3.22-1.59,7.32-2.23,11.18-1.57C283.65,28.73,285.26,30.21,287.93,32.06z"/>
					<path class="st0" d="M286.68,32.42c0.29,2.13,1.57,4.67,2.34,7c0.54,4.05-0.22,7.88-0.45,11.82
						c-5.43,6.24-11.69,15.79-22.34,13.69c-2.72,0.93-1.24,4.31-0.99,5.95c2.01,3.37,6.34,3.09,9.33,4.43
						c7.83,0.71,11.72-6.62,19.31-6.58c2.54-1.85,3-4.5,5.56-5.28c1.58,0.26,3,1.58,4.24,2.16c-0.57,7.89-10.76,9.88-16.1,15.15
						c-5.15,0.86-10.78,3.96-16.04,1.35c-7.9,1.61-9.94-5.71-14.87-9.64c-1.17-3.21-0.81-6.99-1.59-10.31
						c-4.21-5.77,2-11.01,3.05-16.62c5.61-6.95,10.02-19.54,22.24-17.2C282.6,29.28,284.25,32.34,286.68,32.42z"/>
					<path class="st0" d="M241.62,35.64c1.94,9.46-2.71,20.13,3.44,27.73c1.3,2.42-1.57,4.29-2.14,6.32
						c-2.27,5.17,1.16,9.8,0.85,15.08c-1.13,2.16-3.41,1.9-5.81,1.7c-2.34-1.16-0.7-4.77-1.81-6.7c-1.86-3.04,1.89-9.93-4.51-9.69
						c-1.68,1.51-4.5,0.61-6.74,1.06c-5.5,5.62,1.56,12.76-3.46,18.66c-1.87,0.57-3.3-0.84-4.24-2.15
						c0.18-5.08-1.03-9.62-2.07-14.22c-1.43-1.71-6.3-2.08-4.01-5.76c0.58-3.39,5.62-3.32,5.63-6.89c1.3-7.12,0.04-14.14,0.12-21.16
						c0.97-1.53,2.34-1.9,4.07-1.79c0.13,4.14,3.6,8.25,0.8,12.27c2.23,3.56,0.27,7.35,1.61,11.21c1.86,3.06,6.44,2.25,9.57,1.68
						c1.03-0.68,2.09-0.93,2.9-2.08c-2.16-7.31-0.26-17.52-1.28-25.86C236.17,32.48,240.51,32.86,241.62,35.64z"/>
					<path d="M281.25,39.32c3.48,5.79-3.27,9.95-4.97,15.15c-4.01-0.09-7.64,5.16-11.61,1.16c-1.19-4.21,3.19-7.97,3.72-12.45
						C270.55,39.73,277.37,32.9,281.25,39.32z"/>
					<path class="st0" d="M190.54,49.84c-1.31,1.01,0.95,1.94-0.2,2.82c5.29,4.1,11.21-1.35,16.88-2.01
						c1.93,1.34,1.56,4.31,1.1,6.11c-3.98,4.57-10,6.96-16.38,7.29c-3.04,1.46-2.56,4.82-1.8,7.15c1.21,5.53,0.07,12.59,0.1,18.02
						c-0.61,2.17-2.86,2.24-4.36,3.42c-2.95-1.34-3.65-4.91-2.7-7.78c0.26-6.55,0.15-10.82-0.6-17.33
						c-3.66-4.95-11.17-1.24-16.1-3.72c-3.25,0.9-5.78-1.13-7.57-3c-1.08-1.46,0.46-2.79,0.76-4.3c1.51-1.21,3.89-1.78,5.83-1.02
						c5.68-1.03,13.81,3.3,17.2-2.9c0.62-2.44-1.77-6.64,2.35-7.12c1.56-0.56,3.36-2.86,4.94-1.51
						C189.55,46.29,191,47.2,190.54,49.84z"/>
					<path class="st1" d="M275.83,51.65c-3.52-1.04-6.42,6.15-8.3,1.43c2.96-0.55,2.27-4.66,5.2-5.23
						C273.99,48.76,277.63,49.28,275.83,51.65z"/>
					<path d="M128.81,76.11c4.6,1.17,8.56,6.12,9.42,10.61c-0.03,4.15,1.57,9.84-2.29,13.08c-0.52,2.16,1.37,5.2-1.52,6.44
						c-4.42,1.49-11.84,3.07-15.79-0.77c-3.02-2.37-0.97-7.36-4.15-9.2c-9.01-0.34-18.54-0.55-26.34,4.04
						c-3.98,0.3-6.64,3.02-10.77,2.61c-8.56,2.99-18.27,8.73-18.94,18.11c-3.01,4.01,4.45,3.42,3.2,7.77
						c6.96,5.46,13.13,13.15,21.89,15.76c0.01,0.33,0.03,0.53,0.03,0.83c11.2,3.9,20.39,13.1,31.77,16.95
						c5.07,2.58,9.76,6.43,14.41,10.13c3.39-9.94,2.43-18.6,2.72-29.62c-1.75-4.65-1.24-10.46,1.05-14.57
						c1.82-1.54,3.71-2.61,5.78-3.38c1.6,2.26,2.31-1.72,4.06-1.25c3.65-0.44,7.32,1,8.82,4.3c0.74,5.24,4.71,10.13,2.29,15.64
						c0.78,6.4,1.72,13.41-1.37,19.4c0.36,0.35,0.73,0.97,1.26,0.82c3.44-10.8,2.98-22.97,8.35-32.97c1.62-2.01,3.68-3.2,6.08-3.49
						c3.88,2.16,4.41-2.14,6.99-3.6c4.28-1.22,7.41,0.17,10.93,1.85c3.76,2.32,2.52,6.98,5.2,9.35c0.74-3.5,2.86-6.5,5.94-8.12
						c1.04-0.34,1.9,0.27,2.1,0.76c2.27,0.1,4.47-6.84,7.89-2.74c3.29,0.09,6.18,2.77,7.63,5.33c1.26,5.85-1.46,12.04,1.49,17.19
						c2.33-2.58,9.14-1.45,8.08-5.69c-1.01-8.49-0.85-18.7,8.36-23.09c5.62-2.7,12.06-5.88,18.54-4.26
						c7.18,2.86,11.26,9.62,14.26,15.56c1.16-6.29,6.18-10.53,11.96-12.91c2.94-0.36,5.56-1.16,7.85-2.99
						c6-2.01,11.75-6.86,18.52-5.07c3.75,2.29,5.1,6.52,5.76,10.45c-0.62,1.29-2.49,2.54-1.05,3.95c1.79,1.13,1.33,3.57,0.87,5.04
						c-4.07,2.96-9.99,1.71-14.75,3.33c-1.52,1.01-6.25-0.25-6.16,3.01c1.96,1.24,2.59,3.51,3.5,5.47c2.68,2.47,5.24,5.22,7.75,7.92
						c4.72-6.73,6.61-17.45,17.35-17.96c2.08,0.69,6.39-0.41,7.87,2.14c4.4,2.13,9.95,2.5,13.22,6.6c2.13,2.19,1.75,5.56,3.06,8.13
						c0.93-2.88,3.69-7.2,7.71-7.68c3.97,0.05,8.97-4.41,11.6,0.75c2.44,0.13,4.38,1.47,6.35,2.52c1.26-1.47,0.82-3.94,0.28-5.51
						c-2.18-3.26-7.12-5.53-5.39-9.98c2.83-3.73,5.3-7.14,7.08-11.25c1.35-1.03,2.5-2.23,4.42-1.82c5.65,3.09,8.11,9.72,11.45,15.02
						c1.39-3.95,3.88-7.55,5.8-11.34c7.46-9.79,19.2-16.42,33.09-14.14c3.86,1.04,7.09,4.35,9.73,6.74
						c-0.28,5.56,2.05,12.73-2.65,15.86c2.62,1.86-0.4,3.1,0.72,5.52c-2.9,2.09-4.67,6.73-9.02,5.11c-2.64-1.28-5.81-2.32-6.11-5.4
						c-0.02-1.3,0.25-3.3-1.66-3.08c-2.85,1.75-6.34,1.71-8.69,4.28c0.31,3.74,4.95,7.06,8.33,9.49c2.75,3.57,9.62,2.79,8.96,8.42
						c3.74,2.51,2.35,6.61,1.58,10.1c-1.48,2.2-2.93,4.71-2.17,7.14c-2.86,12.23-14.82,16.23-25.43,20.27
						c-5.87,0.96-12.07,0.87-16.35-3.06c-1.48-2.13-2.6-4.58-2.72-7.31c1.78-2.53,4.16-5.24,7.65-4.66c0.17-3.99,4.9-3.29,7.44-4.53
						c2.54-1.39,6.34-2.03,7.25-5.33c0.88-8.94-12.46-8.94-14.34-17.74c-0.33,0.32-0.47,0.51-0.83,0.82
						c0.76,6.54,1.55,14.76-2.53,19.5c-4.97,3.07-6.05,9.98-12.67,9.41c-3.73-2.64-5.44-6.67-8.21-10.36
						c-2.84,2.68-4.43,6.5-8.5,8.64c-0.38,3.29-4.18,4.09-6.94,4.87c-2.27-0.44-4.2-1.84-4.63-4.16
						c-1.43-5.99,3.44-10.08,1.52-15.77c-1.68,1.41-1.41,4.16-3.09,6c-4.19,3.45-5.57,8.55-10.48,12.19
						c-2.06,0.22-2.53,1.4-4.41,2.13c-6.18,1.34-12.56,2.23-17.05-3.06c-4.28-2.91-4.79-7.15-7.5-11.04
						c1.85,8.29-8.16,9.63-12.85,13.42c-7.85,3.88-17.07,2.41-24.66-0.8c-3.31-1.97-2.44-6.28-2.73-9.24c0.93-3.64,4.27-6.2,8.03-7
						c-0.33-0.64,0.35-1.16,0.81-1.65c2.38-1.09,5.19-1.66,7.71-2.6c0.64-1.14,0.25-3.26-0.86-4.75c-4.55-0.99-6.91-4.81-9.1-7.86
						c-1.25,4.65,0.21,10.52-4.57,13.41c-2.58-0.54-4.07,1.48-6.14,2.22c-4.8,0.53-9.37,2.75-14.42,2.15
						c-1.59,5.81,0,14.43-7.74,16.31c-3.6,0.82-7.15-0.43-8.75-2.77c-5.04-4.77,2.88-15.6-7.73-16.32
						c-2.6,4.02-0.69,9.38-2.83,13.52c-1.58,2.69,0.66,6.71-2.91,8.78c0.91,2.11-1.9,1.27-2.55,2.43c-4.11,0.72-7.26-0.6-9.96-3.11
						c-5.93-6.71-0.62-16.54-0.85-24.07c-3.16,4.72-4.03,12.6-11.68,12.99c-2.12-1.88-6.12-2.24-6.75-5.31
						c-3.23,2.42-1.14,7.74-5.07,9.7c-0.34,3.12-2.36,5.81-5.21,7.69c-4.15,1.12-6.28-1.59-9.62-1.63c-2.67-2.17-4.3-5.75-6.49-8.43
						c-2.36,2.54-1.87,6.76-5.92,8.07c1.29,2.88-1.82,4.14-3.44,6.29c-3.37,2.12-6.94,0.09-10.05-0.72c-5.43-6.6-3.1,5.31-7.78,6.47
						c-0.16,9.34-10.28,12.97-17.6,15.99c-5.63,2.39-11.82,3.24-17.76,1.48c-15.5-2.76-30.54,1.57-44.68-4.86
						c-2.94-0.71-6.27-2.21-7.6-5.15c-0.8-2.89-2.35-6.31-1.24-9.51c1.8-2.8,4.81-5.87,9.34-5.69c2.82-3.04,7.8-4.68,12.3-3.76
						c6.49,2.6,14.03,4.5,21.19,2.08c6.77,0.13,14.43,0.66,20.43,0.11c0.35-0.32,0.86-0.83,1.2-1.16c-7.44-4.85-15.85-7-23.64-11.01
						c-5.36-5.4-13.56-8.04-19.14-13.65c-12.96-8.54-31.01-19.18-26.28-37.55c2.18-6.15,4.02-13.11,10.1-17.28
						c2.24-5.03,7.17-6.45,10.5-10.56c16.17-9.04,31.03-18.6,50.35-21.08C113.22,70.89,122.38,70.09,128.81,76.11z"/>
					<path class="st0" d="M121.67,74.7c5.19,3.76,14.76,5.38,14.54,13.74c-0.06,3.16,1.47,7.83-2.47,9.13
						c-7.7,1.58-0.23-8.07-8.24-8.45c-14.83-7.53-33.1-0.82-47.31,3.99c-4.1,5.49-13.06,2.4-16.24,9.72
						c-6.38,1.15-7.22,7.79-8.21,12.73c1.21,4.19,1.22,9.64,5.46,11.66c1.59,5.86,8.81,9.01,12.39,13.79
						c3.18,1.52,6.6,4.4,10.28,5.57c14.54,8.85,31.04,15.5,44.93,25.97c-0.13,1.85,2.27,1.4,2.7,3.06
						c1.49,7.33-0.92,13.47-6.8,18.22c-5.09,3-10.86,1.22-15.22,5.36c-4.62,1.61-10.56-0.99-15.37,1.38
						c-6.76,0.01-12.35-2.41-19.11-2.19c-7.15-1.38-15.29-2.11-21.84-5.95c-2.18-1.74-1.39-5.39-1.19-7.83
						c2.2-2.19,6.87-2.35,10.34-1.82c5.06,1.62,10.16,2.92,15.9,2.54c9.61-2.45,19.42,2.13,28.09-2.13c3.15-0.11,6.66,1.41,9.2,0.03
						c2.62,0.73,3.94-1.46,6.15-1.36c2.24-1.71-0.46-3.29-1.34-4.71c-6.99-1.08-7.31-10.45-15.18-8.52
						c-9.46-6.7-20.16-10.11-29.68-15.83c-2.85-2.03-3.88-6.42-8.56-5.6c-4.04-2.01-5.92-6.7-10.28-8.01
						c-1.5-2.94-6.75-3.21-6.5-6.86c-3.06-2.65-2.68-6.76-5.38-9.65c-2.85-6.8,2.35-11.85,2.64-18.13c2.78-4.35,8.1-5.87,9.96-10.98
						c17.11-10.89,34.92-21.56,57.12-20.85C115.29,74.1,118.55,73.99,121.67,74.7z"/>
					<path class="st0" d="M426.56,107.16c8.67,1.78,3.96,9.99,5.55,15.02c-1.3,2.35-4.44,1.99-6.53,1.54
						c-1.71-3.2,1.14-6.58-2.92-8.54c-5.68,0.63-11.15,2.47-14.63,7.21c-3.71,2.93-1.99,7.74-4.62,11.14
						c3.91,6.73,10.93,9.9,17.15,14.63c1.03,4.07,5.65,7.53,2.9,12.2c-3.89,8.02-11.73,11.85-18.82,16.42
						c-5.56-0.52-10.71,5.12-15.41,0.54c-3.54-7.78,6.59-5.34,9.54-9.04c5.34-1.48,11.15-3.35,13.95-8.37
						c0.83-3.77-2.49-5.96-5.35-7.68c-5.23-1.13-5.81-7.33-11.57-8.3c-2.04-5.35-3.65-11.34-0.9-16.86
						c2.12-8.73,10.68-15.78,18.86-19.15c1.67-2.86,5.29-2.16,8.27-1.81C423.14,107.59,425.3,106.16,426.56,107.16z"/>
					<path class="st0" d="M306.27,114.08c1.62,1.22,0.67,3.6,1.1,5.39c-5.43,3.6-14.15,1.43-18.1,7.36c-4.81,0.81-0.69,5.23-3,7.95
						c3.31,6.4,9.38,10.64,13.04,16.92c1.38,3.92,0.32,7.9-0.43,12.15c-5.61,6.92-15.99,7.43-24.66,6.79
						c-3.21-2.01-2.84-6.17-2.44-9.43c4.91-3.82,12.83-1.12,17.26-5.68c-1.16-4.31-4.27-9.09-9.01-10.7
						c-3.84-6.43-7.97-14.66-2.52-21.57c6.01-4.97,12.17-8.92,19.15-12.17C300.29,111.16,304.91,110.18,306.27,114.08z"/>
					<path class="st0" d="M261.87,126.11c0.52,4.9,5.05,9.16,2.98,14.18c2.7,3.81-2.02,6.08-3.32,9.12
						c-6.58,1.04-12.86,3.71-19.85,2.63c-4.84,4.92,3.76,17.29-7.35,16.05c-1.99-1.95-1.62-5.08-2.4-7.47
						c-0.73-2.16,0.04-5.14-2.6-6.54c-1.91-0.23-3.66,0.2-5.09-1.1c1.97-2.68-2.94-5.3,0.96-7.04c2.59-0.45,5.35-0.66,7.35-2.21
						c-0.11-8.9,1.65-17.3,7.1-24.24c3.12-0.58,3.69-4.02,7.34-3.39C254.06,115.69,258.22,121.16,261.87,126.11z"/>
					<path class="st0" d="M382.89,130.31c-0.65,10.68,4.92,26.85-7.83,32.85c-5.17,1.23-8.45-3.91-11.49-6.61
						c-2.18,2.24-2.18,5.76-4.39,8.34c-1.97,2.36-4.09,6.02-8.09,5.37c0.23-3.48,0.05-6.88,1.68-9.92
						c-1.33-4.22,0.21-8.36,1.33-12.16c-1.41-1.12-0.98-3.55-0.56-5.07c1.16-1.21,1.43-3.67,3.55-3.25
						c1.67,3.25,5.38,1.63,7.54,3.69c3.19,2.01,3.96,8.38,9.47,7.54c3.4-2.41-0.06-7.09,2.6-9.61c-1.09-5.06-1.43-10.26-5.5-13.91
						c0.6-0.65,0.23-1.62,0.41-2.47c-1.57-1.27-2.99-1.73-1.86-3.86c1.5-1.42,0.58-3.99,3.1-4.89
						C378.8,118.95,379.93,125.45,382.89,130.31z"/>
					<path class="st0" d="M150.13,129.31c0.03,5.4,4.71,10.35,1.47,15.71c2.71,4.27-0.88,8.92,0.48,13.27
						c-3.46,5.7,2.69,12.66-2.67,18.3c-2.37,1.22-4.47,0.96-7.07,0.52c-2.19-3.02-0.8-7.49-1.97-10.85
						c1.48-7.94,3.12-14.71,1.98-22.93c3.79-5.13-2.76-12.34,1.44-17.35C147.22,124.62,149.05,127.35,150.13,129.31z"/>
					<path class="st0" d="M187.2,129.52c1.42,5.65,4.37,10.71,5.99,16.33c0.69,0.31,1.08,1.63,2.09,1.05
						c2.7-2.21,2.06-5.61,2.65-8.73c3.3-3.6,4-8.38,7.47-12.11c3,0.41,6.36,1.83,7.61,4.54c0.82,7.02-0.88,13.13,2.32,19.58
						c1.1,7.32-1.3,13.16-1.35,20.88c-1.52,1.35-3.48,4.48-6.14,3.46c-1.58-1.72-2.22-4.34-1.42-6.64
						c2.36-6.32,1.63-12.68,1.39-19.4c-1.07-0.62-1.08-2.09-2.51-2.2c-3.61,0.6-4.36,4.55-6.51,6.86c-2.19,2.41-2.87,6.72-7.58,5.74
						c-5.28-1.97-3.1-9.06-7.88-11.52c0.1-2.13,1.04-5.45-1.1-7.04c-3.78,1.44-2.93,5.83-3.47,9.14c-3.54,3.27,2.3,6.98-1.19,10.37
						c0.83,3.76-0.17,9.37-3.72,11.96c-2.97-0.75-5.55-1.14-6.93-4.21c-0.31-8.8,2.55-16.68,2.94-25.18c2-2.19-0.16-4.45,0.96-6.75
						c2.47-3.38,3.13-8.54,7.62-10.16C181.87,125.28,185.34,126.46,187.2,129.52z"/>
					<path d="M258.08,135.41c1.42,1.46,0.92,2.57,0.48,4.26c-1.11,2.61-4.62,1.74-6.86,2.53c-3.42,0.09-6.8,2.04-10.01,0.35
						c-1.5-3.57,2.53-6.64,0.88-10.21c2.16-2.39,1.8-6.79,5.61-7.72C255.04,124.2,253.44,132.28,258.08,135.41z"/>
					<path class="st1" d="M250.29,140.24c-2.1-0.05-9.28,2.82-6.35-2.36c1.48-2.35,0.35-5.58,2.31-7.63
						C247.79,133.5,250.47,136.34,250.29,140.24z"/>
					<path class="st0" d="M333.25,137.07c3.6,3.02,5.91,6.04,6.28,10.76c2.06,5.04,2.75,12.72-1.45,16.96
						c-2.88,2.43-5.24,3.62-8.44,5.56c-5.62-0.34-12.22,1.88-15.51-2.77c-4-4.07-5.42-9.78-4.41-15.58
						c8.5-4.71,0.16-15.58,10.58-19.21C325.3,132.44,328.76,137.4,333.25,137.07z"/>
					<path d="M332.1,147.76c0.92,1.95,1.89,4.36,1.1,6.68c-3.58,1.28-0.62,6.45-4.76,7.2c-3.49-0.85-9.78,2.65-10.45-2.39
						c-0.74-4.89,1.6-8.92,3.17-13.11C324.51,144.07,329.87,143.76,332.1,147.76z"/>
					<path class="st1" d="M328.65,157.72c0.37,0.98-0.29,1.84-1.14,2.01c-2.3-0.08-4.7,0.49-6.59-0.27
						c-1.2-3.56-0.62-7.49,2.02-10.21C327,151.11,323.6,156.93,328.65,157.72z"/>
				</g>
			</g>
		</g>
	</g>
</g>
<g>
	<path class="st0" d="M431.39,177.13h-2.58v-1.82h7.35v1.82h-2.61v7.75h-2.15v-7.75H431.39z"/>
	<path class="st0" d="M445.35,181.21c-0.04-1.15-0.09-2.53-0.09-3.93h-0.03c-0.31,1.22-0.71,2.58-1.08,3.7l-1.16,3.73h-1.69
		l-1.02-3.69c-0.31-1.13-0.62-2.48-0.87-3.75h-0.03c-0.04,1.29-0.1,2.77-0.15,3.96l-0.19,3.63h-2l0.61-9.56h2.88l0.94,3.21
		c0.31,1.09,0.6,2.28,0.81,3.41h0.06c0.25-1.11,0.58-2.36,0.91-3.44l1.01-3.18h2.84l0.51,9.56h-2.1L445.35,181.21z"/>
</g>
</svg>
